<svg id="Layer_1" data-name="Layer 1" xmlns="http://www.w3.org/2000/svg" viewBox="0 0 628.61 658.54"><defs><style>.cls-1{fill:#d5bdaf;}</style></defs><title>YC logo icon</title><path class="cls-1" d="M1929,1372.07h0v121.34h52.39V1383.06c-3.41-.28-6.79-.67-10.16-1.12A218.16,218.16,0,0,1,1929,1372.07Z" transform="translate(-1685.7 -834.86)"/><path class="cls-1" d="M1981.34,850.39V834.86H1929V956.2a216.71,216.71,0,0,1,52.39-11Z" transform="translate(-1685.7 -834.86)"/><path class="cls-1" d="M2071.05,857.92V834.86h-52.39V945.19a216.71,216.71,0,0,1,52.39,11Z" transform="translate(-1685.7 -834.86)"/><path class="cls-1" d="M2018.66,1383.06v110.35h52.39V1372.07h0a218.11,218.11,0,0,1-38.87,9.43Q2025.49,1382.49,2018.66,1383.06Z" transform="translate(-1685.7 -834.86)"/><path class="cls-1" d="M1839.29,1313.44a218.24,218.24,0,0,1-58.35-148.62v-1.39a218.62,218.62,0,0,1,58.35-148.62,220.06,220.06,0,0,1,52.38-41.72V869c-101,37.06-177.62,124.45-199.58,231.78-.49,2.34-.94,4.7-1.37,7.08-.51,2.81-1,5.66-1.4,8.51,0,.25-.08.51-.1.77-.25,1.67-.49,3.34-.71,5-.17,1.2-.31,2.4-.45,3.6-.19,1.41-.35,2.81-.49,4.24-1.08,9.78-1.71,19.72-1.83,29.75,0,1.46,0,2.91,0,4.37v1.33c0,2.36.06,4.72.14,7.08,0,.39,0,.77,0,1.16l.18,4.88c.06,1.27.15,2.51.21,3.75a.68.68,0,0,1,0,.2c0,.76.08,1.53.12,2.26,0,.18,0,.37,0,.55.14,2.06.28,4.11.45,6.15a1.75,1.75,0,0,0,0,.32c.22,2.61.49,5.17.75,7.74.14,1.14.29,2.28.43,3.41.16,1.41.35,2.83.53,4.24.24,1.81.49,3.62.77,5.41.37,2.4.75,4.78,1.18,7.16.25,1.29.47,2.59.71,3.87.65,3.42,1.37,6.8,2.12,10.18.37,1.63.75,3.25,1.14,4.88s.81,3.24,1.22,4.85a315,315,0,0,0,195.88,215.72v-104.1A220.06,220.06,0,0,1,1839.29,1313.44Zm-68.3-34.72-21.29,10.63a279.6,279.6,0,0,1,0-250.45l21.29,10.67a255.84,255.84,0,0,0,0,229.15Z" transform="translate(-1685.7 -834.86)"/><path class="cls-1" d="M2314.26,1159.75c-.12-10-.75-20-1.83-29.75-.14-1.43-.31-2.83-.49-4.24-.14-1.2-.28-2.4-.45-3.6-.22-1.67-.46-3.34-.71-5,0-.26-.06-.52-.1-.77-.43-2.85-.9-5.7-1.4-8.51-.43-2.38-.88-4.74-1.37-7.08-.36-1.77-.75-3.56-1.12-5.31-.73-3.28-1.5-6.53-2.34-9.77-.43-1.63-.85-3.23-1.28-4.84A315,315,0,0,0,2108.33,869V973.09a221.2,221.2,0,0,1,87.81,93,217.06,217.06,0,0,1,22.92,97.38v1.39a218.24,218.24,0,0,1-58.35,148.62,220.06,220.06,0,0,1-52.38,41.72v104.1a315.29,315.29,0,0,0,184.44-180.5c.51-1.32,1-2.64,1.53-4,1.58-4.19,3.07-8.44,4.47-12.72.41-1.24.82-2.5,1.21-3.76.54-1.71,1.05-3.42,1.56-5.13,1-3.17,1.83-6.39,2.67-9.62s1.63-6.48,2.36-9.73,1.46-6.76,2.12-10.18c.24-1.28.46-2.58.71-3.87.42-2.38.81-4.76,1.18-7.16.28-1.79.53-3.6.77-5.41.19-1.41.37-2.83.53-4.24l.43-3.41c.26-2.57.53-5.15.75-7.74a1.54,1.54,0,0,0,0-.3c.16-2.06.31-4.11.45-6.17,0-.18,0-.37,0-.55,0-.73.08-1.48.12-2.24a.82.82,0,0,1,0-.22c0-.84.1-1.67.15-2.5,0-.39,0-.76,0-1.14.08-1.67.14-3.32.2-5,0-.39,0-.77,0-1.16.08-2.36.14-4.72.14-7.08v-1.33C2314.3,1162.66,2314.28,1161.21,2314.26,1159.75Zm-64,129.6L2229,1278.72a255.84,255.84,0,0,0,0-229.15l21.29-10.67a279.6,279.6,0,0,1,0,250.45Z" transform="translate(-1685.7 -834.86)"/><polygon class="cls-1" points="247.67 305.86 213.58 252.07 176.83 252.07 232.17 339.51 232.17 407.03 263.17 407.03 263.17 339.51 318.29 252.07 281.54 252.07 247.67 305.86"/><path class="cls-1" d="M2127.84,1236.8a28.1,28.1,0,0,0,7.2-12,53.43,53.43,0,0,0,2.32-15.27q.12-8.19.11-14.84h-31v15.5h-62v-93h62v15.5h31v-14.39a55.17,55.17,0,0,0-1.88-14.61,25.38,25.38,0,0,0-6.53-11.51q-4.65-4.65-14.17-5.32-12.61,0-20.14-.11t-12.95-.11c-3.62,0-7,0-10.19-.11s-7-.11-11.62-.11q-6.63,0-14-.11a47.82,47.82,0,0,0-14,1.77,25.84,25.84,0,0,0-11.29,6.64q-4.77,4.77-6.09,14.72-.88,7.1-1.33,12.73t-.44,12.73v81.47q0,9.74,4.76,14.83a28.25,28.25,0,0,0,11.18,7.42,45.1,45.1,0,0,0,13.28,2.65q6.86.33,10.85.33h60Q2122.86,1241.67,2127.84,1236.8Z" transform="translate(-1685.7 -834.86)"/></svg>